<?xml version="1.0" encoding="UTF-8"?>
<svg id="Capa_2" data-name="Capa 2" xmlns="http://www.w3.org/2000/svg" xmlns:xlink="http://www.w3.org/1999/xlink" viewBox="0 0 400.29 790.09">
  <defs>
    <style>
      .cls-1 {
        fill: #fff;
      }
    </style>
    <symbol id="carrot" viewBox="0 0 400.29 790.09">
      <g>
        <path d="M301.28,345.5c-4.49-.9-8.47-.01-12.66.09-9.44.23-20.52.14-29.72,2.1-4.33.93-6.37,3.31-1.28,4.25,5.09.94,11.52.96,16.53,1.72,8.89,1.36,17.7,3.52,26.6,4.88-.37,1.94-1.1,4.33-1.24,6.24-3.34,45.47-9.61,90.64-16.18,135.84-.54,3.71-.24,7.89-1.25,11.73-9.44.02-18.9-.18-28.31.5-2.61.19-16.58,1.71-18.01,2.53-.43.24-.68.37-.88.8-1.77,3.77,5.62,2.89,8.22,3.22,12.49,1.58,24.79,3.97,37.11,5.93-.07,1.64-.97,3.19-1.15,4.81-1.8,16.37-4.82,32.69-7.5,48.93-5.5,33.38-10.95,66.68-18.84,99.74-1.4,1.88-4.51.29-6.44.33-5.77.11-14.02.9-19.83,1.57-2.79.32-15.09,1.07-11.26,4.4,1.6,1.39,14.38,2.19,17.82,2.68,5.77.83,11.57,1.89,17.3,2.86l-7.61,30.56c-1.45,4.58-3.22,9.16-4.66,13.74-4.37,13.88-10.1,33.94-20.19,45.72-12.29,14.36-30.3,11.4-40.44-2.82-15.56-21.81-25.04-65.62-30.84-91.11s-10.42-51.69-14.85-77.53c12.08-2.34,24.6-4.28,37.1-5.2,2.9-.74,3.04-3.51.17-4.16-1.3-.3-2.8.04-4.15-.16-11.3-1.66-22.72-2.95-34.28-2.42l-1.49-.84c.54-3.08-.8-5.69-1.26-8.48-7.5-45.15-13.53-90.41-18.76-135.77-.39-3.38-1.96-6.71-1.17-10.2l27.96-5.32c7.12-1.46,17.12-1.36,23.8-2.83,1.93-.43,3.92-1.77,2.14-3.25-1.58-1.32-12.79-2.35-15.7-2.62-13-1.23-26.23-1.4-39.24-.15-2.3-.33-1.37-7.92-1.57-9.51-3.93-32.14-7.45-64.35-8.61-96.46-.28-7.86-2.9-17.54,2.32-24.57,5.01-6.74,29.53-18.66,38.9-22.22,50.83-19.26,106.78-13,150.97,13.86,7.67,4.66,14.73,9.26,15.02,17.92.3,9.1-1.26,19.8-1.9,28.98-.09,1.34.2,9.2-.71,9.67Z"/>
        <path d="M224.2,25.45c4.14-2.1,9.52-5.01,14.62-4.99,1.06,0,8.25,1.59,9.22,2.04,4.19,1.94,7.22,7.53,8.53,11.18,4.39,12.17-2.66,22.54-8.72,33.22,8.18-4.17,16.62,1.24,19.59,7.5,6.17,13.03-9.05,26.23-18.97,35.21-.26,1.17.65.65,1.56.73,7.93.67,14.55,2.43,15.18,9.83,1,11.83-19.35,16.52-28.24,22.66-6.79,4.68-11.71,12.84-14.94,19.47-7.15,14.71-10.87,31.25-12.76,46.93l9.22-15.81c13.26-19.96,40.82-45.41,63.29-59.08,5.46-3.32,13.39-8.72,19.27-3.02,7.04-5.22,16.46-11.23,26.72-9.95,3.91.49,8.45,4.59,7.82,7.96,7.75-2.84,14.63-5.93,22.1-.51,3.77,2.73,4.48,5.5,4.04,9.5,2-.74,4.35-.59,6.52-.49,19.53.86,40.65,9.94,28.43,27.79-4.3,6.28-13.83,12.85-22.51,14.65,6.08,4.08,11.76,8.16,4.99,14.24-8.65,7.77-27.59,6.04-39.22,4.73.66,1.69,1.95,3.02,2.14,4.91.87,8.62-6.52,11.86-16.15,12.06-8.08.17-15.52-3.48-22.7-4.99,1.09,6.28-2.39,10.92-10.43,11.85-13.21,1.53-19.35-9.32-32.77-7.82-3.42.38-12.6,4.64-15.6,6.46-12.68,7.71-19.37,22.25-21.83,34.46-1.95.04-3.92-.76-5.78-.89-8.26-.57-18.32-1.03-26.55-.66-2.37.11-11.91,2.03-13.24.93-2.37-12.22-10.1-27.85-23.21-35.06-3.19-1.75-12.88-5.78-16.44-5.78s-10.38,2.59-13.8,3.9c-2.67,1.02-4.8,2.85-7.95,3.61-11.06,2.66-21.82-1.87-18.4-12.01-5.37,2.28-13.06,4.84-19.14,5.35-2.75.23-8.83.11-11.48-.5-9.63-2.21-10.42-9.89-6.71-16.33-11.66,1.36-29.36,2.98-38.6-4.23-7.44-5.81-2-10.67,4.38-14.74-.21-.22-5.48-1.63-6.35-2.02-1.81-.81-6.24-3.48-7.97-4.72-6.94-4.98-13.75-14.98-10.53-22.45,4.56-10.57,25.6-14.31,37.92-12.77-2.66-7.87,7.52-13.95,16.81-12.23,3.57.66,5.91,2.93,9.32,3.25-.46-2.41,1.91-5.5,4.38-6.72,9.42-4.66,22.97,3.48,29.54,8.71,6.66-5.89,15.98.84,21.76,4.52,24.34,15.49,45.32,36.52,60.94,57.97l9.08,15.92c-.29-2.73-.22-6.04-.66-8.7-2.48-14.89-10.27-42.44-22.37-53.96-6.42-6.11-14.61-8.68-22.22-13.13-14.79-8.64-14.24-23.52,6.68-23.34-1.75-1.56-4.08-3.34-5.61-5-7.22-7.76-15.38-16.42-14.76-26.84.44-7.5,11.48-16.74,20.99-11.37-1.78-5.14-5.92-9.71-7.91-14.87-7.25-18.87,6.26-41.53,32.18-26.58.5-7.97,5.76-20.76,15.75-24.07,19.55-6.48,30.21,11.27,31.56,24.07ZM200.54,195.74c.54-16.88,1.36-33.71,1.85-50.71.52-18.2,1.51-37.04.68-55.44-.12-2.66-.44-11.02-1.44-12.83-.33-.6-.76-.98-1.39-1.37-1.17.72-1.77,1.72-2.03,2.86-.52,2.28-.67,7.24-.8,9.85-1,20.04.18,40.46.67,60.43.35,14.32.05,29.24,1.2,43.49.07.87.23,3.27,1.26,3.72ZM178.13,214.72c-1.71-3.19-4.61-6.61-7.2-9.45-19.76-21.6-48.79-38.21-81.16-45.23-5.25-1.14-17.13-3.51-22.13-3.72-2.4-.1-7.86,1.3-6.2,3.97,1.32,2.11,16.19,3.73,19.89,4.53,26.74,5.79,52.89,16.07,73.8,30.67,8.43,5.89,15.52,12.62,23.01,19.23ZM338.55,158.41c-.72-.58-4.52-1.58-5.69-1.58-4.18,0-15.83,2.15-20.44,3.09-35.16,7.18-65.71,24.7-86.25,48.64-2.25,2.62-4.77,5.72-6.33,8.65,24.8-26.85,60.47-43.94,100.53-52.41,4.6-.97,14.02-1.47,17.54-3.36,1.1-.59,1.59-2.26.63-3.03Z"/>
        <path class="cls-1" d="M338.55,158.41c.96.77.47,2.44-.63,3.03-3.53,1.89-12.95,2.39-17.54,3.36-40.07,8.46-75.73,25.56-100.53,52.41,1.57-2.92,4.08-6.02,6.33-8.65,20.54-23.94,51.09-41.46,86.25-48.64,4.61-.94,16.26-3.1,20.44-3.09,1.17,0,4.97,1,5.69,1.58Z"/>
      </g>
    </symbol>
  </defs>
  <g id="Capa_1-2" data-name="Capa 1">
    <use width="400.29" height="790.09" xlink:href="#carrot"/>
  </g>
</svg>